<svg xmlns="http://www.w3.org/2000/svg" xmlns:xlink="http://www.w3.org/1999/xlink" width="49.555" height="39.383" viewBox="0 0 49.555 39.383">
  <defs>
    <clipPath id="clip-path">
      <rect id="Rectangle_15764" data-name="Rectangle 15764" width="37.721" height="48.268" transform="translate(0 0)" fill="#fff"/>
    </clipPath>
  </defs>
  <g id="Group_34078" data-name="Group 34078" transform="matrix(-0.035, -0.999, 0.999, -0.035, 1.316, 39.383)">
    <g id="Group_33465" data-name="Group 33465" transform="translate(0 0)" clip-path="url(#clip-path)">
      <path id="Path_21094" data-name="Path 21094" d="M36.933,16.969,20.679.778a2.522,2.522,0,0,0-3.645,0L.78,16.969a2.6,2.6,0,0,0,0,3.709,2.6,2.6,0,0,0,3.709,0L16.256,8.842l-.707,34.48a2.6,2.6,0,0,0,5.2,0l.707-34.48L33.289,20.609a2.576,2.576,0,1,0,3.645-3.64" transform="translate(0 0)" fill="#fff"/>
    </g>
  </g>
</svg>
