<svg xmlns="http://www.w3.org/2000/svg" xmlns:xlink="http://www.w3.org/1999/xlink" width="44.801" height="44.754" viewBox="0 0 44.801 44.754">
  <defs>
    <clipPath id="clip-path">
      <rect id="Rectangle_15764" data-name="Rectangle 15764" width="32.609" height="30.726" fill="#2a2a2a"/>
    </clipPath>
  </defs>
  <g id="Group_33466" data-name="Group 33466" transform="matrix(0.719, -0.695, 0.695, 0.719, -11.115, 11.142)">
    <g id="Group_33465" data-name="Group 33465" transform="translate(0 16)" clip-path="url(#clip-path)">
      <path id="Path_21094" data-name="Path 21094" d="M31.927,32.321l-14.052,14a2.18,2.18,0,0,1-3.151,0l-14.052-14a2.243,2.243,0,0,1,0-3.206,2.243,2.243,0,0,1,3.206,0L14.052,39.346,15.883,19.3a2.248,2.248,0,0,1,4.5,0L18.549,39.346,28.777,29.174a2.227,2.227,0,1,1,3.151,3.147" transform="translate(0 -16.263)" fill="#2a2a2a"/>
    </g>
  </g>
</svg>
