<svg id="Layer_1" xmlns="http://www.w3.org/2000/svg" width="258.707" height="57.067" viewBox="0 0 258.707 57.067">
  <g id="Group_3" data-name="Group 3">
    <g id="Group_1" data-name="Group 1" transform="translate(0 0.082)">
      <path id="Path_1" data-name="Path 1" d="M34.136,10.721h-2.13a.913.913,0,0,1-.91-.91V7.649A3.691,3.691,0,0,0,27.4,3.958H7.992q-3.775,0-3.778,3.691v4.856a3.071,3.071,0,0,0,3.072,3.072H35.306V33.033a6.678,6.678,0,0,1-6.677,6.677H6.764A6.762,6.762,0,0,1,0,32.946V30a.915.915,0,0,1,.915-.915H3.031A.915.915,0,0,1,3.946,30v2.157a3.78,3.78,0,0,0,3.778,3.778h19.94q3.687,0,3.687-3.755V25.368l.068-6.013H6.149q-5.885,0-5.885-5.972V6.948A6.766,6.766,0,0,1,7.028.18H28.37q6.677,0,6.677,6.764V9.811A.913.913,0,0,1,34.136,10.721Z" transform="translate(0 -0.18)" fill="#9fa1a4"/>
      <path id="Path_2" data-name="Path 2" d="M121.5,18.741H89.968v16.6l27.582.592.178-3.778V29.992a.91.91,0,0,1,.91-.91h2.126a.91.91,0,0,1,.91.91V39.71H85.99l.023-8.5V.18h35.661L121.5,6.944V18.736ZM93.746,3.958H89.968V14.963H117.55V3.958Z" transform="translate(-46.852 -0.18)" fill="#9fa1a4"/>
      <path id="Path_3" data-name="Path 3" d="M206.4,10.727h-2.126a.915.915,0,0,1-.915-.915V7.65a3.691,3.691,0,0,0-3.691-3.691H180.257q-3.775,0-3.778,3.691v4.856a3.071,3.071,0,0,0,3.072,3.072h22.22l5.8-.114V33.034a6.678,6.678,0,0,1-6.677,6.677h-21.87a6.762,6.762,0,0,1-6.764-6.764V29.993a.91.91,0,0,1,.91-.91H175.3a.91.91,0,0,1,.91.91V32.16a3.78,3.78,0,0,0,3.778,3.778h19.94q3.687,0,3.687-3.755V25.373l-.032-6.013H178.409q-5.885,0-5.885-5.972V6.954A6.762,6.762,0,0,1,179.288.19H200.63q6.677,0,6.677,6.764V9.816a.915.915,0,0,1-.915.915Z" transform="translate(-93.856 -0.185)" fill="#9fa1a4"/>
    </g>
    <g id="Group_2" data-name="Group 2" transform="translate(118.808)">
      <path id="Path_4" data-name="Path 4" d="M440.34,39.525h-2.121a.915.915,0,0,1-.915-.915V7.464a3.686,3.686,0,0,0-3.687-3.687H413.991l-3.951.086V38.61a.915.915,0,0,1-.915.915H407a.915.915,0,0,1-.915-.915V0h28.5q6.677,0,6.677,6.764V38.61a.915.915,0,0,1-.915.915Z" transform="translate(-340.066)" fill="#9fa1a4"/>
      <path id="Path_5" data-name="Path 5" d="M261.949.17h7.56A1.933,1.933,0,0,1,271.444,2.1V38.148a.406.406,0,0,1-.405.405h-3.145a.406.406,0,0,1-.405-.405V4.767a.808.808,0,0,0-.81-.819h-4.734a.915.915,0,0,1-.915-.915l.009-1.953a.913.913,0,0,1,.91-.91Z" transform="translate(-261.03 -0.093)" fill="#9fa1a4"/>
      <path id="Path_6" data-name="Path 6" d="M526.758,50.217q0,6.848-6.941,6.85L498.1,56.5a.912.912,0,0,1-.888-.915V53.639a.914.914,0,0,1,.938-.915l20.8.564q3.864,0,3.864-3.846V39.234l-3.864.878-20.2-.587q-6.766,0-6.764-6.677V6.764Q491.98,0,498.744,0l20.992.587h7.028v49.63Zm-7.9-45.852-19.144-.587q-3.775,0-3.778,3.678V31.983q0,3.769,3.778,3.764l19.144.587,3.951-.874V4.365Z" transform="translate(-386.863)" fill="#9fa1a4"/>
    </g>
    <rect id="Rectangle_1" data-name="Rectangle 1" width="21.014" height="3.682" rx="1.841" transform="translate(116.505 35.93)" fill="#9fa1a4"/>
    <circle id="Ellipse_1" data-name="Ellipse 1" cx="7.615" cy="7.615" r="7.615" transform="translate(142.753 0.296)" fill="#f5841f"/>
    <circle id="Ellipse_2" data-name="Ellipse 2" cx="7.615" cy="7.615" r="7.615" transform="translate(163.017 0.082)" fill="#f5841f"/>
    <circle id="Ellipse_3" data-name="Ellipse 3" cx="7.615" cy="7.615" r="7.615" transform="translate(142.753 21.032)" fill="#f5841f"/>
    <circle id="Ellipse_4" data-name="Ellipse 4" cx="7.615" cy="7.615" r="7.615" transform="translate(163.017 20.814)" fill="#f5841f"/>
  </g>
</svg>
